<svg width="32" height="33" viewBox="0 0 32 33" fill="none" xmlns="http://www.w3.org/2000/svg">
<path d="M5 10.4336H5.75H5ZM5 26.3401H4.25H5ZM27 10.4336H26.25H27ZM27 19.5479H27.75H27ZM22.1903 5.56057L22.1903 4.81057L22.1903 5.56057ZM9.80973 5.56055L9.80973 4.81055L9.80973 5.56055ZM10.9231 24.421V23.671H10.6802L10.4834 23.8134L10.9231 24.421ZM6.90133 27.3315L7.34103 27.9391H7.34103L6.90133 27.3315ZM22.1903 24.421V23.671V24.421ZM21.0769 13.1689C21.4911 13.1689 21.8269 12.8331 21.8269 12.4189C21.8269 12.0047 21.4911 11.6689 21.0769 11.6689V13.1689ZM10.9231 11.6689C10.5089 11.6689 10.1731 12.0047 10.1731 12.4189C10.1731 12.8331 10.5089 13.1689 10.9231 13.1689V11.6689ZM17.6923 18.3126C18.1065 18.3126 18.4423 17.9769 18.4423 17.5626C18.4423 17.1484 18.1065 16.8126 17.6923 16.8126V18.3126ZM10.9231 16.8126C10.5089 16.8126 10.1731 17.1484 10.1731 17.5626C10.1731 17.9769 10.5089 18.3126 10.9231 18.3126V16.8126ZM4.25 10.4336L4.25 26.3401H5.75L5.75 10.4336H4.25ZM26.25 10.4336V19.5479H27.75V10.4336H26.25ZM22.1903 4.81057L9.80973 4.81055L9.80973 6.31055L22.1903 6.31057L22.1903 4.81057ZM10.4834 23.8134L6.46163 26.7239L7.34103 27.9391L11.3628 25.0286L10.4834 23.8134ZM22.1903 23.671L10.9231 23.671V25.171L22.1903 25.171L22.1903 23.671ZM27.75 10.4336C27.75 7.33737 25.2701 4.81058 22.1903 4.81057L22.1903 6.31057C24.4232 6.31058 26.25 8.14724 26.25 10.4336H27.75ZM5.75 10.4336C5.75 8.14721 7.57682 6.31054 9.80973 6.31055L9.80973 4.81055C6.72996 4.81054 4.25 7.33734 4.25 10.4336H5.75ZM4.25 26.3401C4.25 27.9246 6.03426 28.8848 7.34103 27.9391L6.46163 26.7239C6.17669 26.9301 5.75 26.7375 5.75 26.3401H4.25ZM26.25 19.5479C26.25 21.8343 24.4232 23.671 22.1903 23.671V25.171C25.27 25.171 27.75 22.6442 27.75 19.5479L26.25 19.5479ZM21.0769 11.6689L10.9231 11.6689V13.1689L21.0769 13.1689V11.6689ZM17.6923 16.8126H10.9231V18.3126H17.6923V16.8126Z" fill="#1A212A"/>
</svg>
