<svg width="33" height="33" viewBox="0 0 33 33" fill="none" xmlns="http://www.w3.org/2000/svg">
<path d="M5.74536 11.08L6.48971 11.1719L5.74536 11.08ZM5.85192 28.6486L5.1109 28.7643H5.1109L5.85192 28.6486ZM20.958 28.8394L20.4755 29.4136L20.4755 29.4136L20.958 28.8394ZM19.4727 27.5911L19.9552 27.017L19.9552 27.017L19.4727 27.5911ZM18.6313 27.5643L19.0756 28.1685L19.0756 28.1685L18.6313 27.5643ZM16.7759 28.9286L16.3316 28.3244H16.3316L16.7759 28.9286ZM15.9687 28.9286L16.413 28.3244H16.413L15.9687 28.9286ZM14.0852 27.5436L13.6409 28.1478L13.6409 28.1478L14.0852 27.5436ZM13.278 27.5436L13.7224 28.1478L13.7224 28.1478L13.278 27.5436ZM11.3946 28.9286L10.9503 28.3244L10.9502 28.3244L11.3946 28.9286ZM10.5874 28.9286L11.0317 28.3244L11.0317 28.3244L10.5874 28.9286ZM8.73197 27.5643L8.28765 28.1685H8.28765L8.73197 27.5643ZM7.89061 27.5911L7.40808 27.017H7.40807L7.89061 27.5911ZM6.39859 28.845L6.88112 29.4192L6.88112 29.4192L6.39859 28.845ZM21.5043 28.6391L20.7615 28.535V28.535L21.5043 28.6391ZM7.41577 9.46116L7.49235 10.2072L7.41577 9.46116ZM22.5897 25.4574C22.6196 25.0442 22.309 24.6851 21.8958 24.6552C21.4827 24.6253 21.1235 24.9359 21.0936 25.3491L22.5897 25.4574ZM8.8375 10.0917C9.25069 10.0626 9.56208 9.70407 9.53301 9.29088C9.50393 8.87769 9.1454 8.5663 8.73221 8.59537L8.8375 10.0917ZM25.0105 4.34329L25.0726 3.59586L25.0105 4.34329ZM12.6073 4.31558L12.6839 5.06166L12.6073 4.31558ZM10.9369 5.93438L11.6813 6.02629V6.02629L10.9369 5.93438ZM11.0435 23.503L10.3024 23.6187L11.0435 23.503ZM26.7667 6.0628L26.0198 6.13032V6.13032L26.7667 6.0628ZM26.6958 23.4935L25.9531 23.3894L25.9531 23.3894L26.6958 23.4935ZM26.1495 23.6938L25.667 24.268L26.1495 23.6938ZM24.6642 22.4456L25.1468 21.8714L25.1467 21.8714L24.6642 22.4456ZM23.8229 22.4187L24.2672 23.0229H24.2672L23.8229 22.4187ZM21.9675 23.7831L21.5231 23.1788L21.5231 23.1788L21.9675 23.7831ZM21.1603 23.7831L21.6046 23.1788V23.1788L21.1603 23.7831ZM19.2768 22.398L18.8325 23.0023L18.8325 23.0023L19.2768 22.398ZM18.4696 22.398L18.9139 23.0023L18.9139 23.0023L18.4696 22.398ZM16.5861 23.7831L16.1418 23.1788L16.1418 23.1788L16.5861 23.7831ZM15.7789 23.7831L16.2232 23.1788L16.2232 23.1788L15.7789 23.7831ZM13.9235 22.4187L13.4792 23.0229L13.9235 22.4187ZM13.0822 22.4456L13.5647 23.0197L13.0822 22.4456ZM11.5901 23.6995L12.0727 24.2736H12.0727L11.5901 23.6995ZM13.4918 8.16058C13.0776 8.16058 12.7418 8.49637 12.7418 8.91058C12.7418 9.3248 13.0776 9.66058 13.4918 9.66058V8.16058ZM18.5369 9.66058C18.9511 9.66058 19.2869 9.3248 19.2869 8.91058C19.2869 8.49637 18.9511 8.16058 18.5369 8.16058V9.66058ZM13.4918 12.1178C13.0776 12.1178 12.7418 12.4536 12.7418 12.8678C12.7418 13.282 13.0776 13.6178 13.4918 13.6178V12.1178ZM24.2545 13.6178C24.6687 13.6178 25.0045 13.282 25.0045 12.8678C25.0045 12.4536 24.6687 12.1178 24.2545 12.1178V13.6178ZM13.4918 16.075C13.0776 16.075 12.7418 16.4108 12.7418 16.825C12.7418 17.2392 13.0776 17.575 13.4918 17.575V16.075ZM24.2545 17.575C24.6687 17.575 25.0045 17.2392 25.0045 16.825C25.0045 16.4108 24.6687 16.075 24.2545 16.075V17.575ZM7.8783 19.6306C7.46408 19.6306 7.1283 19.9663 7.1283 20.3806C7.1283 20.7948 7.46408 21.1306 7.8783 21.1306V19.6306ZM10.0201 21.1306C10.4343 21.1306 10.7701 20.7948 10.7701 20.3806C10.7701 19.9663 10.4343 19.6306 10.0201 19.6306V21.1306ZM7.8783 15.6552C7.46408 15.6552 7.1283 15.9909 7.1283 16.4052C7.1283 16.8194 7.46408 17.1552 7.8783 17.1552V15.6552ZM10.0201 17.1552C10.4343 17.1552 10.7701 16.8194 10.7701 16.4052C10.7701 15.9909 10.4343 15.6552 10.0201 15.6552V17.1552ZM5.00101 10.9881C4.49732 15.0675 4.02684 21.8218 5.1109 28.7643L6.59294 28.5329C5.53886 21.7824 5.99462 15.1816 6.48971 11.1719L5.00101 10.9881ZM21.4405 28.2653L19.9552 27.017L18.9901 28.1653L20.4755 29.4136L21.4405 28.2653ZM18.187 26.96L16.3316 28.3244L17.2202 29.5329L19.0756 28.1685L18.187 26.96ZM16.413 28.3244L14.5296 26.9394L13.6409 28.1478L15.5244 29.5329L16.413 28.3244ZM12.8337 26.9394L10.9503 28.3244L11.8389 29.5329L13.7224 28.1478L12.8337 26.9394ZM11.0317 28.3244L9.17629 26.96L8.28765 28.1685L10.1431 29.5329L11.0317 28.3244ZM7.40807 27.017L5.91606 28.2709L6.88112 29.4192L8.37314 28.1653L7.40807 27.017ZM9.17629 26.96C8.6457 26.5699 7.91293 26.5927 7.40808 27.017L8.37314 28.1653C8.35906 28.1771 8.3432 28.1819 8.33041 28.1823C8.31763 28.1827 8.30191 28.179 8.28765 28.1685L9.17629 26.96ZM10.9502 28.3244C10.9638 28.3144 10.9786 28.3105 10.991 28.3105C11.0033 28.3105 11.0181 28.3144 11.0317 28.3244L10.143 29.5329C10.6465 29.9031 11.3354 29.9031 11.8389 29.5329L10.9502 28.3244ZM14.5296 26.9394C14.0261 26.5692 13.3372 26.5692 12.8337 26.9394L13.7224 28.1478C13.7088 28.1578 13.694 28.1617 13.6816 28.1617C13.6693 28.1617 13.6545 28.1578 13.6409 28.1478L14.5296 26.9394ZM16.3316 28.3244C16.3452 28.3144 16.36 28.3105 16.3723 28.3105C16.3846 28.3105 16.3995 28.3144 16.413 28.3244L15.5244 29.5329C16.0279 29.9031 16.7167 29.9031 17.2202 29.5329L16.3316 28.3244ZM19.9552 27.017C19.4504 26.5927 18.7176 26.5699 18.187 26.96L19.0756 28.1685C19.0614 28.179 19.0457 28.1827 19.0329 28.1823C19.0201 28.1819 19.0042 28.1771 18.9901 28.1653L19.9552 27.017ZM20.7615 28.535C20.812 28.1745 21.2152 28.0759 21.4405 28.2653L20.4755 29.4136C21.1013 29.9395 22.1248 29.616 22.247 28.7431L20.7615 28.535ZM5.1109 28.7643C5.24521 29.6244 6.25779 29.943 6.88112 29.4192L5.91606 28.2709C6.1417 28.0812 6.53791 28.1804 6.59294 28.5329L5.1109 28.7643ZM7.3392 8.71508C6.11991 8.84022 5.15055 9.77692 5.00101 10.9881L6.48971 11.1719C6.55214 10.6662 6.95743 10.2621 7.49235 10.2072L7.3392 8.71508ZM21.0936 25.3491C21.0153 26.4313 20.9066 27.4996 20.7615 28.535L22.247 28.7431C22.3974 27.6698 22.5093 26.5679 22.5897 25.4574L21.0936 25.3491ZM8.73221 8.59537C8.26269 8.62841 7.7973 8.66806 7.3392 8.71508L7.49235 10.2072C7.9331 10.162 8.38247 10.1237 8.8375 10.0917L8.73221 8.59537ZM25.0726 3.59586C21.9627 3.33749 16.8911 3.12198 12.5307 3.5695L12.6839 5.06166C16.9112 4.6278 21.878 4.83563 24.9484 5.09071L25.0726 3.59586ZM10.1926 5.84248C9.68887 9.92191 9.21839 16.6763 10.3024 23.6187L11.7845 23.3873C10.7304 16.6368 11.1862 10.036 11.6813 6.02629L10.1926 5.84248ZM26.0198 6.13032C26.4171 10.5264 26.7827 17.4665 25.9531 23.3894L27.4386 23.5975C28.2928 17.4992 27.9136 10.42 27.5137 5.99529L26.0198 6.13032ZM26.6321 23.1197L25.1468 21.8714L24.1817 23.0197L25.667 24.268L26.6321 23.1197ZM23.3785 21.8145L21.5231 23.1788L22.4118 24.3873L24.2672 23.0229L23.3785 21.8145ZM21.6046 23.1788L19.7211 21.7938L18.8325 23.0023L20.7159 24.3873L21.6046 23.1788ZM18.0253 21.7938L16.1418 23.1788L17.0304 24.3873L18.9139 23.0023L18.0253 21.7938ZM16.2232 23.1788L14.3678 21.8145L13.4792 23.0229L15.3346 24.3873L16.2232 23.1788ZM12.5996 21.8714L11.1076 23.1253L12.0727 24.2736L13.5647 23.0197L12.5996 21.8714ZM14.3678 21.8145C13.8373 21.4243 13.1045 21.4471 12.5996 21.8714L13.5647 23.0197C13.5506 23.0315 13.5347 23.0363 13.522 23.0367C13.5092 23.0372 13.4935 23.0334 13.4792 23.0229L14.3678 21.8145ZM16.1418 23.1788C16.1554 23.1689 16.1702 23.165 16.1825 23.165C16.1948 23.165 16.2097 23.1689 16.2232 23.1788L15.3346 24.3873C15.8381 24.7575 16.5269 24.7575 17.0304 24.3873L16.1418 23.1788ZM19.7211 21.7938C19.2176 21.4236 18.5288 21.4236 18.0253 21.7938L18.9139 23.0023C18.9003 23.0122 18.8855 23.0161 18.8732 23.0161C18.8609 23.0161 18.846 23.0122 18.8325 23.0023L19.7211 21.7938ZM21.5231 23.1788C21.5367 23.1689 21.5515 23.165 21.5639 23.165C21.5762 23.165 21.591 23.1689 21.6046 23.1788L20.7159 24.3873C21.2194 24.7575 21.9083 24.7575 22.4118 24.3873L21.5231 23.1788ZM25.1467 21.8714C24.6419 21.4471 23.9091 21.4243 23.3785 21.8145L24.2672 23.0229C24.2529 23.0334 24.2372 23.0372 24.2244 23.0367C24.2116 23.0363 24.1958 23.0316 24.1817 23.0197L25.1467 21.8714ZM25.9531 23.3894C26.0036 23.029 26.4068 22.9303 26.6321 23.1197L25.667 24.268C26.2928 24.794 27.3163 24.4704 27.4386 23.5975L25.9531 23.3894ZM10.3024 23.6187C10.4368 24.4788 11.4493 24.7975 12.0727 24.2736L11.1076 23.1253C11.3332 22.9357 11.7295 23.0348 11.7845 23.3873L10.3024 23.6187ZM12.5307 3.5695C11.3115 3.69464 10.3421 4.63134 10.1926 5.84248L11.6813 6.02629C11.7437 5.5206 12.149 5.11656 12.6839 5.06166L12.5307 3.5695ZM24.9484 5.09071C25.5309 5.13911 25.9703 5.58291 26.0198 6.13032L27.5137 5.99529C27.3971 4.70533 26.3646 3.7032 25.0726 3.59586L24.9484 5.09071ZM13.4918 9.66058H18.5369V8.16058H13.4918V9.66058ZM13.4918 13.6178H24.2545V12.1178H13.4918V13.6178ZM13.4918 17.575H24.2545V16.075H13.4918V17.575ZM7.8783 21.1306H10.0201V19.6306H7.8783V21.1306ZM7.8783 17.1552H10.0201V15.6552H7.8783V17.1552Z" fill="#1A212A"/>
</svg>
