<svg width="33" height="33" viewBox="0 0 33 33" fill="none" xmlns="http://www.w3.org/2000/svg">
<path d="M15.85 19.5605C15.85 19.9748 16.1858 20.3105 16.6 20.3105C17.0142 20.3105 17.35 19.9748 17.35 19.5605H15.85ZM16.6 4.56055L17.0988 4.00047C16.8145 3.74724 16.3855 3.74724 16.1012 4.00047L16.6 4.56055ZM12.0591 7.60047C11.7497 7.87596 11.7223 8.35004 11.9978 8.65936C12.2733 8.96868 12.7474 8.99611 13.0567 8.72062L12.0591 7.60047ZM20.1433 8.72062C20.4526 8.99611 20.9267 8.96868 21.2022 8.65936C21.4776 8.35004 21.4502 7.87596 21.1409 7.60047L20.1433 8.72062ZM12.76 12.3105C13.1742 12.3105 13.51 11.9748 13.51 11.5605C13.51 11.1463 13.1742 10.8105 12.76 10.8105V12.3105ZM20.44 10.8105C20.0258 10.8105 19.69 11.1463 19.69 11.5605C19.69 11.9748 20.0258 12.3105 20.44 12.3105V10.8105ZM17.35 19.5605V4.56055H15.85L15.85 19.5605H17.35ZM13.0567 8.72062L17.0988 5.12062L16.1012 4.00047L12.0591 7.60047L13.0567 8.72062ZM16.1012 5.12062L20.1433 8.72062L21.1409 7.60047L17.0988 4.00047L16.1012 5.12062ZM25.45 13.9605L25.45 26.1605H26.95L26.95 13.9605H25.45ZM23.8 27.8105L9.4 27.8105V29.3105L23.8 29.3105V27.8105ZM7.75 26.1605L7.75 13.9605H6.25L6.25 26.1605H7.75ZM9.4 12.3105H12.76V10.8105H9.4L9.4 12.3105ZM20.44 12.3105L23.8 12.3105V10.8105L20.44 10.8105V12.3105ZM9.4 27.8105C8.48873 27.8105 7.75 27.0718 7.75 26.1605H6.25C6.25 27.9002 7.6603 29.3105 9.4 29.3105V27.8105ZM25.45 26.1605C25.45 27.0718 24.7113 27.8105 23.8 27.8105V29.3105C25.5397 29.3105 26.95 27.9002 26.95 26.1605H25.45ZM26.95 13.9605C26.95 12.2209 25.5397 10.8105 23.8 10.8105V12.3105C24.7113 12.3105 25.45 13.0493 25.45 13.9605H26.95ZM7.75 13.9605C7.75 13.0493 8.48873 12.3105 9.4 12.3105L9.4 10.8105C7.6603 10.8105 6.25 12.2209 6.25 13.9605H7.75Z" fill="#1A212A"/>
</svg>
